<?xml version="1.0" standalone="no"?>
<!DOCTYPE svg PUBLIC "-//W3C//DTD SVG 20010904//EN"
 "http://www.w3.org/TR/2001/REC-SVG-20010904/DTD/svg10.dtd">
<svg version="1.0" xmlns="http://www.w3.org/2000/svg"
 width="828.000000pt" height="1472.000000pt" viewBox="0 0 828.000000 1472.000000"
 preserveAspectRatio="xMidYMid meet">
<metadata>
Created by potrace 1.16, written by Peter Selinger 2001-2019
</metadata>
<g transform="translate(0.000000,1472.000000) scale(0.100000,-0.100000)"
fill="#000000" stroke="none">
<path d="M4445 12762 c-86 -10 -195 -79 -167 -106 3 -4 -2 -4 -11 0 -17 6 -65
-11 -77 -28 -15 -19 -171 -47 -263 -46 -59 0 -103 -5 -111 -11 -11 -9 -15 -9
-18 0 -3 9 -19 9 -64 1 -82 -14 -167 -55 -224 -107 -14 -12 -38 -31 -55 -41
-16 -10 -52 -40 -78 -66 -26 -26 -52 -48 -58 -48 -5 0 -8 -4 -6 -9 2 -10 -75
-87 -115 -115 -43 -30 -42 -16 2 30 71 73 12 33 -94 -63 -121 -112 -145 -131
-187 -157 -20 -12 -51 -31 -70 -43 -19 -12 -51 -32 -73 -45 -37 -22 -136 -138
-119 -138 5 0 15 6 22 13 7 6 -4 -15 -23 -47 -20 -33 -36 -66 -36 -73 0 -7
-18 -47 -39 -90 -46 -92 -61 -140 -50 -168 6 -15 8 -16 8 -4 1 9 8 22 16 29
12 10 15 10 15 -3 0 -9 -5 -19 -10 -22 -6 -3 -8 -16 -5 -28 23 -108 43 -601
24 -613 -6 -4 -6 -10 1 -19 8 -9 8 -15 0 -20 -5 -3 -10 -12 -10 -18 0 -7 4 -6
10 3 7 11 9 5 8 -22 -1 -21 -5 -35 -9 -32 -5 3 -18 0 -30 -7 -17 -9 -19 -13
-8 -20 8 -5 22 -6 32 -3 16 5 17 -1 15 -62 -1 -47 -8 -74 -21 -90 -16 -21 -16
-24 -3 -24 9 0 16 5 16 10 0 6 5 10 10 10 6 0 10 -7 10 -15 0 -8 -6 -15 -14
-15 -8 0 -18 -5 -21 -10 -4 -7 2 -9 19 -4 27 6 29 4 40 -46 4 -20 0 -28 -21
-37 -15 -7 -33 -13 -40 -13 -7 0 -13 -4 -13 -9 0 -9 58 1 78 13 6 4 18 -9 27
-29 14 -28 15 -41 6 -66 -17 -49 -13 -48 15 1 14 25 23 39 21 31 -4 -17 16
-38 59 -63 18 -11 28 -24 26 -35 -2 -15 -1 -15 7 -4 5 8 15 16 23 17 7 1 18 3
23 5 6 2 24 -9 40 -24 68 -64 115 -112 115 -119 0 -4 24 3 53 16 116 54 134
61 184 71 29 6 116 10 200 8 248 -7 381 -62 470 -197 l29 -43 59 28 c33 16 52
29 43 29 -10 0 -33 17 -52 37 l-34 38 32 31 c18 18 41 34 52 36 10 2 19 10 19
18 0 8 -6 14 -13 12 -6 -1 -12 3 -12 9 0 6 -7 9 -15 5 -10 -3 -15 1 -15 14 0
10 -5 22 -12 26 -8 5 -6 10 8 14 16 6 13 8 -15 15 -22 4 -42 3 -57 -6 -21 -11
-27 -10 -42 5 -15 15 -15 18 -2 27 13 9 13 10 0 6 -8 -2 -16 -13 -18 -25 -3
-17 -6 -19 -17 -9 -7 6 -11 15 -8 19 2 4 -3 5 -11 2 -9 -3 -16 -10 -16 -15 0
-5 -5 -9 -11 -9 -6 0 -8 7 -5 16 3 8 2 12 -3 9 -5 -3 -12 -1 -16 5 -4 6 -12 5
-21 -5 -18 -18 -34 -20 -34 -4 0 7 -10 5 -25 -5 -18 -12 -25 -13 -25 -4 0 8
-3 9 -8 3 -4 -6 -14 -10 -22 -10 -8 1 -25 -5 -38 -13 -21 -13 -22 -13 -15 4 6
17 5 18 -11 5 -14 -12 -19 -12 -26 -2 -6 11 -9 11 -13 0 -5 -11 -8 -11 -19 2
-7 9 -19 14 -26 11 -7 -2 -19 1 -26 7 -7 6 -21 9 -30 5 -9 -3 -16 -1 -16 6 0
7 -8 9 -20 5 -16 -5 -20 -2 -20 16 0 39 23 101 32 87 5 -9 8 -5 8 11 0 18 3
21 13 13 8 -7 18 -7 27 -2 8 5 25 7 38 3 18 -4 24 -1 29 16 6 22 27 28 38 11
3 -5 17 -10 31 -10 14 0 27 -7 30 -15 4 -8 15 -15 26 -15 14 0 18 5 14 15 -7
18 5 20 23 3 10 -11 15 -9 27 6 8 11 14 26 14 33 0 7 5 13 10 13 6 0 10 -5 10
-11 0 -7 10 -9 25 -5 14 4 25 2 25 -4 0 -13 44 -23 69 -15 12 3 19 11 16 16
-4 5 -2 9 4 9 5 0 17 3 26 7 15 5 16 3 6 -15 -14 -27 -10 -28 18 -3 12 10 20
25 19 32 -2 10 9 13 40 12 40 -2 57 9 30 20 -11 5 34 11 69 10 8 0 9 7 3 23
-5 13 -6 24 -1 24 5 0 14 -19 20 -43 12 -40 15 -43 47 -43 21 0 34 5 34 13 0
7 7 13 15 13 8 0 15 4 15 10 0 5 -8 7 -17 3 -16 -6 -16 -4 1 16 11 12 22 17
25 12 4 -5 22 -4 45 4 35 12 44 12 80 -6 22 -10 49 -19 61 -19 23 0 65 -26 65
-41 0 -5 -6 -9 -14 -9 -7 0 -27 -14 -44 -31 -17 -17 -35 -28 -41 -25 -7 4 -8
1 -5 -8 4 -10 1 -16 -8 -16 -8 0 -23 -9 -33 -20 -10 -11 -22 -17 -26 -14 -5 3
-18 3 -28 -1 -22 -7 -49 -63 -35 -73 17 -13 14 -105 -3 -118 -15 -10 -13 -14
11 -35 24 -21 25 -24 9 -31 -17 -6 -17 -7 0 -7 18 -1 24 -35 7 -46 -21 -13 -9
-23 31 -27 47 -4 69 10 69 45 0 12 11 45 24 73 44 94 110 171 176 203 18 9 14
3 -14 -22 -21 -19 -35 -40 -32 -46 4 -6 1 -9 -7 -5 -27 10 -128 -178 -126
-234 0 -9 9 11 20 46 11 34 24 62 29 62 6 0 10 7 10 17 0 9 2 14 5 11 4 -3 -3
-33 -15 -67 -14 -44 -20 -86 -20 -153 0 -82 2 -95 20 -106 12 -7 17 -18 13
-28 -5 -13 -7 -13 -14 -2 -5 8 -6 -1 -2 -22 7 -38 26 -78 61 -127 12 -17 22
-35 22 -40 0 -13 79 -94 120 -122 32 -23 34 -23 16 -3 -11 12 -16 22 -11 22 4
0 3 6 -2 13 -6 6 -8 23 -7 37 9 65 9 75 -3 73 -7 -2 -10 4 -7 12 4 8 -2 23
-13 33 -10 9 -12 13 -3 7 13 -9 13 -8 2 7 -8 9 -23 18 -35 20 -14 2 -21 10
-21 20 1 10 -2 15 -7 12 -5 -3 -9 -1 -9 5 0 17 22 24 30 10 7 -10 11 -10 23 0
10 8 17 9 22 1 8 -14 42 -13 51 2 5 8 0 9 -14 6 -12 -4 -22 -2 -22 3 0 5 12
12 27 15 19 5 30 2 39 -11 7 -10 18 -14 25 -9 7 4 10 3 6 -3 -4 -7 8 -14 31
-18 20 -4 40 -11 43 -16 9 -15 66 10 72 32 4 13 14 19 34 19 52 0 103 12 96
23 -4 6 4 8 20 5 16 -3 24 -1 20 5 -3 5 7 6 26 2 21 -4 31 -3 31 5 0 7 8 9 19
5 11 -3 22 -1 26 5 3 5 15 10 26 10 10 0 19 6 19 13 0 9 2 9 8 0 5 -8 25 -2
67 19 54 27 77 33 138 37 21 1 23 31 2 31 -8 0 -15 9 -15 20 0 12 -7 20 -17
20 -17 1 -17 1 0 14 9 7 17 18 17 24 0 6 8 16 18 21 9 6 13 11 9 11 -4 0 3 10
16 23 27 24 47 120 27 132 -6 3 -7 0 -4 -9 3 -9 1 -16 -5 -16 -6 0 -8 -7 -4
-17 4 -10 2 -14 -5 -9 -6 3 -10 19 -9 34 3 34 -29 53 -87 52 -36 -1 -83 1
-251 14 -22 1 -58 -3 -80 -9 -22 -7 -61 -15 -87 -18 -39 -5 -46 -4 -44 10 2 9
9 19 17 21 17 6 59 50 59 62 0 4 3 10 8 13 4 2 1 2 -5 1 -17 -4 -16 8 2 32 8
10 15 27 15 37 0 9 7 17 15 17 8 0 15 5 15 11 0 6 -8 8 -17 5 -10 -3 -51 -10
-91 -16 -40 -5 -98 -19 -129 -30 -31 -11 -60 -17 -64 -14 -5 3 -9 1 -9 -5 0
-5 -14 -8 -30 -6 -17 2 -28 0 -25 -5 3 -5 13 -6 23 -3 13 5 14 3 6 -6 -9 -10
-17 -10 -34 -1 -20 11 -21 14 -7 27 8 8 26 16 40 16 14 1 23 5 21 9 -5 7 110
43 188 59 69 14 291 20 348 9 37 -7 49 -5 72 12 15 10 33 16 38 13 6 -4 17 -1
25 5 10 8 15 9 15 2 0 -7 8 -9 18 -5 15 6 16 5 2 -12 -14 -17 -13 -17 10 -10
14 4 26 11 28 15 5 14 77 -30 93 -57 17 -29 20 -30 53 -17 16 6 18 4 13 -15
-4 -17 -1 -24 13 -28 22 -6 15 -33 -8 -33 -12 0 -13 -3 -4 -12 18 -18 14 -32
-5 -17 -11 10 -14 10 -9 2 4 -7 5 -17 1 -23 -6 -10 -45 24 -45 40 0 6 -9 10
-20 10 -26 0 -25 -15 3 -35 12 -8 21 -19 21 -23 -1 -4 6 -23 15 -42 8 -19 16
-36 16 -37 3 -6 143 26 170 38 17 7 54 28 83 46 58 37 77 40 86 17 12 -32 5
-49 -27 -69 -112 -68 -133 -77 -179 -77 -26 0 -45 -4 -42 -9 3 -5 -1 -9 -10
-9 -8 0 -17 6 -19 13 -4 10 -6 10 -6 0 -1 -7 -7 -13 -15 -13 -8 0 -17 6 -19
13 -4 9 -8 8 -16 -3 -6 -8 -11 -18 -11 -21 0 -10 54 -18 60 -10 3 5 25 11 49
14 29 4 40 2 30 -4 -7 -5 -9 -9 -4 -9 6 0 3 -5 -5 -10 -8 -5 -15 -17 -15 -27
0 -10 -7 -18 -15 -18 -8 0 -16 -10 -18 -23 -4 -28 20 -54 39 -41 11 7 10 9 -6
9 -19 1 -19 2 -3 14 10 7 15 16 11 19 -3 4 -12 -1 -19 -11 -7 -9 -14 -12 -14
-6 0 19 28 36 50 29 20 -6 28 -25 10 -25 -5 0 -7 -6 -4 -14 3 -8 15 -11 30 -8
20 3 26 0 31 -17 6 -24 23 -29 23 -7 0 8 4 17 8 20 5 3 9 -8 9 -24 0 -16 8
-39 18 -50 l19 -21 8 20 c4 12 5 28 2 36 -10 25 5 65 24 64 10 0 12 -3 5 -6
-10 -4 -10 -9 1 -25 8 -11 12 -28 9 -37 -3 -12 -1 -11 11 3 9 11 16 16 16 12
0 -5 7 -3 15 4 34 28 11 66 -48 80 -29 7 -30 8 -6 9 15 1 40 -6 55 -14 36 -18
39 -60 7 -91 -12 -12 -19 -25 -16 -28 4 -3 7 -23 8 -43 1 -33 4 -38 23 -35 12
2 22 -2 22 -7 0 -6 -5 -11 -10 -11 -6 0 -16 -12 -23 -27 -6 -16 -16 -31 -22
-35 -6 -5 -4 -8 5 -8 18 0 75 -78 65 -88 -4 -4 -18 6 -31 21 -13 15 -24 24
-24 18 0 -5 5 -13 10 -16 6 -3 10 -18 10 -32 0 -20 3 -23 14 -14 11 9 15 7 19
-10 3 -12 2 -30 -3 -40 -7 -12 -5 -19 5 -23 31 -11 13 -24 -30 -21 -25 2 -45
-1 -45 -6 0 -5 5 -9 10 -9 6 0 10 -8 10 -17 0 -15 2 -16 10 -3 8 12 10 12 15
-2 8 -20 -2 -41 -16 -33 -5 4 -9 -3 -9 -14 0 -14 6 -21 19 -21 11 0 21 3 24 8
2 4 2 2 1 -5 -2 -7 1 -15 6 -18 6 -4 9 -16 9 -28 -1 -17 -2 -18 -6 -4 -5 21
-23 23 -23 2 0 -8 -4 -15 -10 -15 -14 0 -13 13 2 28 6 6 9 15 5 18 -10 10 -40
-25 -43 -52 -1 -13 2 -24 7 -24 5 0 9 -5 9 -11 0 -6 -7 -9 -15 -5 -8 3 -15 1
-15 -3 0 -5 6 -12 13 -14 10 -4 10 -6 0 -6 -7 -1 -13 -7 -13 -15 0 -8 6 -16
13 -19 6 -2 2 -2 -10 0 -15 2 -26 -4 -33 -18 -10 -18 -9 -20 7 -17 10 2 28 -6
41 -18 23 -20 45 -21 111 -3 7 2 16 -2 18 -8 3 -8 -4 -13 -16 -13 -14 0 -21
-6 -21 -20 0 -23 -18 -27 -26 -5 -4 8 -13 15 -21 15 -8 0 -12 -6 -9 -12 3 -7
9 -21 12 -30 3 -9 16 -18 28 -20 11 -2 20 -8 19 -15 -3 -14 35 -48 44 -40 3 4
-3 17 -15 30 -27 29 -27 33 -1 40 15 4 20 11 16 22 -6 13 -3 14 16 3 19 -10
20 -13 5 -16 -27 -5 -22 -27 6 -28 16 -1 26 5 29 17 8 29 25 22 32 -13 4 -18
13 -36 19 -40 8 -6 7 -8 -2 -8 -7 0 -15 7 -18 15 -4 8 -14 15 -23 15 -13 0
-12 -4 6 -18 15 -12 20 -27 19 -52 -1 -19 3 -38 8 -42 15 -10 2 -20 -18 -12
-9 3 -16 15 -16 26 0 10 -4 17 -9 13 -5 -3 -12 -1 -16 5 -10 16 -21 12 -35
-15 -7 -14 -20 -25 -29 -25 -12 0 -9 -6 9 -20 25 -19 24 -21 -18 -32 -10 -2
-7 -9 8 -23 18 -16 20 -16 14 -2 -5 14 0 17 25 17 30 0 45 24 20 32 -7 2 4 4
25 4 47 0 52 -31 6 -41 -16 -4 -30 -11 -30 -17 0 -6 10 -8 25 -4 14 4 25 2 25
-4 0 -5 -12 -10 -26 -10 -21 0 -24 -4 -19 -20 5 -15 2 -20 -12 -20 -26 0 -49
-20 -58 -49 -9 -31 15 -24 32 10 8 14 13 18 13 9 1 -21 45 -51 64 -44 9 3 13
10 10 15 -3 5 -10 7 -15 4 -5 -4 -9 -1 -9 5 0 6 -7 10 -16 8 -10 -2 -19 3 -21
10 -3 6 2 12 11 12 10 0 16 9 16 25 0 14 3 25 6 25 15 0 33 -30 29 -49 -2 -11
0 -23 6 -26 5 -4 9 10 9 29 0 20 -5 36 -11 36 -8 0 -8 4 0 13 6 8 13 51 15 98
3 46 11 106 18 134 13 51 22 60 138 138 23 16 39 31 35 35 -4 4 -12 0 -18 -8
-7 -8 -21 -16 -32 -17 -11 -1 -35 -5 -52 -9 -28 -5 -34 -3 -42 18 -10 26 -4
76 11 94 4 6 6 20 2 30 -5 15 -4 16 5 4 5 -8 13 -11 17 -7 4 3 1 13 -6 22 -10
12 -10 15 3 15 9 0 19 -5 22 -10 5 -8 11 -8 20 0 10 8 14 7 18 -2 3 -8 6 -6 6
5 1 10 6 15 11 12 18 -11 11 4 -11 24 -22 20 -22 20 -50 1 -26 -19 -27 -19
-22 -1 3 10 0 22 -7 26 -8 5 -8 10 1 21 8 10 8 14 0 14 -6 0 -11 -4 -11 -9 0
-5 -11 -11 -25 -13 -19 -4 -23 -2 -15 7 8 9 7 15 -2 19 -7 3 -3 3 9 0 19 -4
22 -2 16 12 -5 13 -3 15 7 9 8 -5 11 -3 8 6 -3 8 -15 13 -27 11 -19 -3 -22 0
-16 17 5 16 3 20 -9 15 -11 -4 -16 0 -16 14 0 11 6 23 13 25 7 3 5 6 -5 6 -15
1 -16 5 -7 28 5 14 7 33 4 42 -3 8 -6 53 -6 98 0 46 -4 83 -8 83 -5 0 -8 11
-8 25 0 14 4 25 9 25 5 0 6 6 1 13 -4 6 -8 21 -10 32 -2 18 -1 18 9 -2 6 -13
15 -23 20 -23 14 0 9 15 -12 38 -11 12 -20 30 -20 42 0 11 -4 20 -10 20 -20 0
-9 29 13 33 17 3 16 5 -8 6 -29 2 -29 2 -11 16 18 14 19 15 2 15 -13 0 -17 5
-13 20 3 11 1 20 -4 20 -13 0 -11 38 2 42 5 2 11 18 11 36 1 26 5 32 17 27 8
-3 12 -3 9 1 -10 9 29 47 41 40 5 -4 8 -13 4 -21 -4 -12 4 -15 35 -15 40 0 62
-13 42 -25 -14 -9 -12 -25 3 -25 14 0 17 -57 4 -78 -5 -7 -6 -21 -2 -31 7 -23
-8 -34 -46 -33 -28 1 -48 -26 -35 -47 4 -5 1 -11 -6 -13 -7 -3 -9 -11 -3 -24
4 -10 9 -27 10 -37 1 -10 12 -32 25 -50 30 -40 70 -122 70 -143 0 -8 -13 -35
-30 -59 -35 -51 -55 -126 -37 -137 6 -4 16 -3 21 2 6 6 20 10 32 10 14 0 30
14 48 40 14 22 33 40 42 40 8 0 13 4 9 9 -3 6 4 8 15 6 11 -2 20 0 20 5 0 4 9
6 20 3 10 -3 26 2 35 11 9 8 23 19 31 24 9 5 18 27 21 50 3 23 9 42 13 42 12
0 -11 90 -32 127 -22 37 -80 67 -113 59 -11 -3 -47 3 -80 12 -47 14 -61 23
-63 40 -2 12 1 22 7 22 6 0 8 -7 4 -16 -5 -13 -2 -15 18 -9 30 9 49 32 42 51
-3 8 1 14 11 14 9 0 16 6 17 13 2 33 9 51 30 73 38 40 55 31 84 -46 1 -3 10
-32 20 -65 10 -33 31 -80 48 -104 16 -24 31 -55 32 -70 11 -119 19 -161 30
-161 7 0 15 7 18 14 4 10 1 13 -9 9 -17 -6 -18 1 -3 29 15 28 41 139 34 146
-3 3 -5 -2 -5 -11 0 -9 -4 -19 -10 -22 -6 -4 -10 7 -10 25 0 25 4 31 15 26 8
-3 15 -1 15 4 0 6 -5 10 -10 10 -6 0 -1 10 10 22 15 17 19 31 15 56 -3 21 -1
31 5 27 5 -3 10 3 10 15 0 12 -4 18 -10 15 -7 -4 -8 3 -4 22 4 15 3 25 -1 20
-12 -11 -35 49 -35 90 0 20 -4 32 -10 28 -5 -3 -11 -1 -11 4 -1 6 -2 15 -3 19
0 4 -13 20 -27 34 -23 23 -34 26 -79 24 -43 -2 -57 -7 -76 -30 -17 -19 -24
-22 -24 -12 0 9 5 16 11 16 8 0 8 5 -1 15 -10 12 -9 15 6 16 11 0 14 3 6 6 -6
2 -10 9 -7 14 8 12 -28 -2 -37 -15 -4 -6 -10 -7 -14 -4 -3 4 0 14 9 22 8 8 17
12 21 9 3 -4 6 -1 6 5 0 7 3 11 8 11 18 -3 32 2 32 11 0 6 -13 10 -29 10 -28
0 -49 24 -32 35 5 3 7 14 4 25 -3 11 -1 20 5 20 5 0 12 18 16 39 3 22 11 41
17 43 7 2 7 12 1 28 -11 29 3 48 31 42 15 -3 16 0 9 15 -33 63 -36 74 -24 82
10 6 9 11 -3 21 -10 8 -15 25 -14 44 2 17 0 37 -5 44 -4 6 -4 12 1 12 10 0 9
122 -1 138 -4 7 -1 15 9 18 10 4 13 13 9 26 -4 15 -3 19 7 13 8 -4 3 3 -11 14
-14 11 -22 21 -17 22 4 1 13 2 20 3 6 1 10 8 8 16 -2 8 -5 23 -6 33 -1 10 -6
22 -11 25 -6 4 -15 32 -21 62 -6 30 -20 87 -31 125 -12 39 -23 88 -25 110 -1
22 -6 46 -11 53 -4 7 -6 34 -5 60 1 27 0 53 -4 58 -3 6 -9 34 -13 62 -5 36
-13 56 -25 63 -11 5 -19 18 -19 29 0 10 -5 22 -10 25 -14 9 -41 75 -35 86 10
15 -22 74 -79 143 -31 38 -55 75 -52 82 3 8 2 14 -3 14 -4 0 -13 11 -19 24
-28 63 -117 167 -185 219 -21 16 -46 37 -55 47 -25 27 -107 70 -167 87 -27 7
-66 18 -85 24 -19 6 -53 12 -75 14 -135 13 -205 26 -245 46 -25 12 -52 22 -60
22 -8 0 -21 4 -28 10 -7 5 -29 13 -50 18 -65 13 -208 58 -192 59 8 1 2 6 -15
11 -16 5 -88 9 -160 9 -71 -1 -155 1 -185 3 -30 3 -82 2 -115 -1z"/>
<path d="M3343 10109 c-35 -4 -89 -14 -121 -23 -68 -17 -212 -81 -212 -94 0
-5 9 -20 21 -33 13 -16 19 -33 17 -51 -4 -21 0 -28 12 -28 9 0 25 -15 35 -33
16 -30 55 -47 55 -24 0 5 12 6 26 3 25 -7 25 -6 10 15 -13 19 -13 24 0 36 7 8
19 11 24 8 6 -4 17 -2 25 5 9 7 15 8 20 0 11 -18 45 -12 45 10 0 13 5 18 15
14 8 -4 15 -2 15 2 0 5 29 9 65 10 55 1 65 -2 63 -15 -2 -10 4 -15 16 -14 10
0 32 -5 49 -12 l31 -13 -85 -42 c-97 -48 -134 -79 -150 -127 -10 -32 -2 -65 9
-34 10 30 75 90 117 110 55 26 52 26 57 -4 3 -13 1 -22 -3 -19 -5 3 -9 0 -9
-6 0 -6 -4 -9 -8 -6 -4 2 -39 -24 -77 -60 -70 -64 -70 -64 -71 -119 0 -50 2
-55 21 -55 11 0 27 6 34 13 10 8 12 8 7 0 -5 -9 9 -11 50 -9 67 4 114 -11 114
-36 0 -22 65 -42 91 -27 13 7 26 6 40 -2 12 -6 35 -8 51 -5 18 3 27 2 23 -4
-3 -6 -1 -10 4 -10 6 0 11 -8 12 -17 0 -14 2 -14 9 4 5 12 18 24 29 28 12 3
21 15 21 26 0 10 3 18 8 17 9 -3 49 24 51 35 0 4 1 15 2 25 0 14 2 14 9 -3 7
-17 9 -17 9 -2 1 9 5 17 10 17 12 0 21 53 11 63 -4 5 -4 24 1 42 15 55 -18
189 -51 210 -6 4 -8 10 -5 15 3 5 -4 14 -16 20 -11 7 -18 14 -15 17 2 3 0 11
-7 18 -9 10 -14 9 -23 -2 -9 -13 -12 -13 -25 -1 -8 8 -22 17 -31 21 -11 4 -18
17 -18 32 0 18 4 24 13 19 6 -4 3 2 -8 14 -37 38 -95 62 -188 77 -100 16 -129
17 -224 4z"/>
<path d="M4180 9949 c-19 -4 -50 -10 -68 -14 -41 -6 -154 -44 -165 -54 -5 -5
-1 -34 8 -65 9 -32 14 -60 11 -63 -3 -4 -1 -12 5 -20 18 -21 14 -180 -5 -253
-25 -93 -47 -137 -110 -218 -31 -40 -54 -72 -51 -72 20 0 95 102 133 181 27
55 55 99 65 102 9 3 17 14 17 24 0 17 9 53 47 198 2 11 6 28 7 38 1 10 8 22
14 26 7 4 15 18 17 32 6 30 30 48 54 42 13 -3 17 -11 13 -28 -4 -22 -1 -23 33
-21 21 2 46 1 56 -1 21 -6 26 -33 7 -33 -9 0 -8 -4 2 -10 13 -9 13 -10 0 -10
-11 0 -10 -3 4 -11 14 -9 20 -8 27 2 6 10 9 6 9 -13 0 -16 -5 -28 -11 -28 -5
0 -7 -5 -3 -11 3 -6 15 -9 25 -6 12 3 19 0 19 -10 0 -8 5 -11 10 -8 6 3 10 2
10 -4 0 -5 -10 -12 -22 -14 -17 -3 -14 -5 10 -6 24 -1 32 -6 31 -18 0 -11 -3
-13 -6 -5 -8 20 -23 3 -23 -26 0 -19 -3 -23 -11 -15 -9 9 -15 8 -26 -2 -7 -8
-13 -18 -12 -22 4 -21 -3 -24 -23 -11 -20 12 -27 12 -55 -1 l-31 -16 22 -26
c16 -18 28 -24 37 -19 7 5 17 6 23 3 5 -4 1 -10 -10 -13 -12 -5 -3 -7 24 -6
33 0 42 4 42 18 0 10 7 18 16 18 8 0 13 -4 9 -9 -3 -5 8 -9 24 -9 22 1 28 5
24 17 -4 13 -3 13 5 2 6 -9 18 -11 33 -6 l24 7 -22 -19 c-13 -11 -23 -24 -23
-28 0 -5 10 0 22 11 21 19 21 19 13 -1 -5 -11 -8 -32 -7 -47 1 -16 -4 -29 -11
-30 -7 0 -16 -2 -22 -3 -5 -2 -29 -3 -52 -4 -33 -1 -43 -5 -43 -18 0 -13 3
-14 12 -5 17 17 68 15 68 -2 0 -9 -7 -12 -20 -9 -15 4 -20 0 -20 -16 0 -25 26
-38 48 -24 21 12 67 -10 89 -43 8 -13 23 -24 32 -24 14 0 14 2 1 10 -8 5 -11
12 -7 16 4 4 13 2 19 -4 9 -9 16 -8 30 5 10 9 18 22 18 30 0 15 16 17 25 3 4
-6 11 -7 17 -4 6 4 14 0 19 -7 5 -8 24 -13 49 -13 34 1 40 -2 41 -20 0 -11 3
-15 6 -8 4 10 8 9 19 -5 16 -21 19 -79 4 -88 -5 -3 -10 1 -10 9 0 10 -7 14
-17 12 -65 -13 -83 -20 -83 -30 0 -6 -5 -3 -11 7 -8 13 -14 15 -29 7 -13 -7
-21 -7 -25 0 -4 6 -12 7 -18 3 -18 -11 -36 -12 -42 -2 -3 4 -18 6 -34 3 -21
-5 -30 -1 -35 12 -6 16 -8 16 -22 -4 -8 -12 -12 -27 -8 -34 5 -8 2 -9 -9 -5
-10 3 -17 2 -17 -3 0 -5 -7 -7 -16 -3 -14 5 -14 3 -3 -16 8 -11 17 -21 21 -21
5 0 8 -4 8 -8 0 -5 -7 -9 -15 -9 -8 0 -15 6 -15 14 0 7 -3 13 -7 13 -16 -1
-43 -28 -43 -44 0 -9 -8 -16 -21 -16 -11 0 -17 -4 -14 -10 3 -5 1 -10 -5 -10
-6 0 -9 -4 -6 -9 4 -5 0 -12 -6 -14 -9 -4 -8 -6 2 -7 8 -1 -5 -9 -30 -19 -40
-16 -45 -22 -43 -47 2 -29 10 -75 13 -84 1 -3 2 -8 1 -12 0 -4 6 -5 14 -2 15
6 19 17 16 41 -2 17 32 33 57 26 12 -3 22 -12 22 -19 0 -17 1 -17 36 1 16 8
37 12 47 9 9 -3 17 0 17 6 0 6 5 8 10 5 6 -4 17 -1 25 5 8 6 20 8 27 4 10 -6
11 -5 1 7 -11 13 -9 15 10 15 13 -1 21 4 19 12 -1 8 4 12 15 10 10 -2 17 -11
15 -20 -3 -19 65 -38 141 -40 33 0 50 -6 56 -17 5 -9 13 -13 17 -9 4 4 1 14
-6 23 -11 13 -9 15 10 13 13 -2 25 3 28 11 3 8 0 11 -7 7 -18 -11 -13 6 7 20
9 7 25 14 35 14 22 0 23 20 0 20 -14 0 -15 2 -1 18 8 9 18 29 22 44 3 15 16
36 27 47 13 12 23 36 26 68 2 26 9 50 14 51 5 2 7 8 3 13 -5 8 9 13 29 10 4 0
7 6 7 15 0 11 5 14 16 10 18 -7 64 18 64 34 0 5 -8 7 -17 5 -10 -3 -3 2 15 10
17 8 32 16 32 18 0 1 -42 3 -93 3 -82 2 -102 6 -187 41 -153 62 -247 139 -342
279 -51 76 -98 214 -98 289 0 30 -5 45 -16 49 -22 8 -122 6 -164 -5z"/>
<path d="M2854 9639 c3 -13 5 -27 5 -31 1 -5 73 -8 161 -8 l160 0 0 25 c0 24
-2 25 -77 25 -43 0 -117 3 -166 7 l-87 6 4 -24z"/>
<path d="M3993 8954 c-53 -26 -52 -50 6 -83 15 -9 5 -36 -25 -66 -15 -15 -15
-17 5 -22 11 -3 21 -12 21 -19 0 -32 91 -50 130 -26 41 26 50 39 54 81 4 41
-8 53 -30 31 -18 -18 -40 16 -24 35 7 8 16 13 20 10 5 -3 7 2 6 11 -2 15 -57
45 -106 57 -14 3 -38 0 -57 -9z"/>
<path d="M6060 8740 c-11 -34 -17 -40 -41 -40 -19 0 -30 6 -34 20 -4 13 -15
20 -30 20 -22 0 -23 -2 -14 -32 5 -18 9 -33 9 -34 0 -1 -19 -1 -42 -1 -24 0
-35 2 -25 5 9 2 15 8 11 13 -3 5 1 12 10 15 8 3 12 12 9 20 -3 9 -12 13 -21 9
-8 -3 -19 -1 -22 6 -15 23 -79 -30 -80 -65 0 -12 -5 -16 -14 -13 -8 3 -17 1
-19 -6 -2 -7 -10 12 -17 41 -9 32 -19 52 -28 52 -8 0 -12 -6 -8 -15 3 -8 1
-15 -3 -15 -5 0 -11 7 -15 15 -8 21 -23 19 -29 -5 -3 -11 -1 -20 4 -20 5 0 9
-9 9 -20 0 -11 11 -27 25 -36 29 -19 32 -31 8 -37 -11 -3 -7 -5 10 -6 25 -1
27 1 17 19 -8 14 -8 20 0 20 6 0 14 -8 17 -17 4 -10 11 -21 17 -25 6 -4 1 -8
-11 -8 -13 0 -23 -4 -23 -10 0 -5 -7 -10 -15 -10 -8 0 -15 -5 -15 -11 0 -6 -7
-8 -16 -5 -14 5 -15 4 -5 -8 7 -8 10 -20 6 -26 -3 -5 -1 -10 4 -10 6 0 11 -5
11 -11 0 -5 -4 -8 -9 -5 -5 3 -11 -3 -14 -14 -4 -15 0 -20 14 -20 22 0 26 -18
5 -26 -8 -3 -12 -13 -9 -22 2 -10 -5 -22 -17 -30 -17 -10 -20 -10 -20 4 0 8 5
12 10 9 6 -3 10 3 10 14 0 14 -5 19 -15 15 -8 -4 -17 1 -21 9 -5 13 -10 14
-31 4 -21 -9 -24 -16 -19 -41 5 -27 4 -28 -6 -11 -16 30 -18 31 -28 15 -6 -10
-10 -11 -10 -3 0 7 -6 10 -13 7 -8 -3 -27 0 -43 6 -20 8 -30 8 -32 1 -2 -6 -8
-11 -14 -11 -6 0 -8 7 -5 15 4 8 2 17 -4 21 -6 3 -8 12 -5 20 3 8 -1 14 -9 14
-18 0 -18 -1 -5 -34 7 -20 6 -26 -4 -26 -7 0 -16 14 -19 30 -4 17 -11 30 -17
30 -6 0 -8 -10 -4 -24 3 -13 1 -27 -5 -30 -6 -4 -12 1 -12 13 -1 12 -2 27 -3
34 -1 15 -39 27 -47 14 -8 -11 -49 9 -49 23 0 6 -6 10 -13 10 -7 0 -18 5 -25
12 -12 12 -23 15 -82 24 -19 3 -47 10 -62 16 -19 7 -37 7 -60 -1 -33 -11 -63
-9 -153 10 -27 6 -76 13 -108 16 -61 5 -136 33 -89 33 37 0 62 18 62 45 0 23
-4 25 -41 25 -22 0 -38 4 -34 9 9 16 -33 23 -57 9 -13 -7 -26 -17 -30 -22 -7
-11 11 -56 24 -56 18 0 6 -21 -17 -30 -14 -5 -25 -14 -25 -20 0 -5 -8 -10 -18
-10 -10 0 -23 -5 -30 -12 -9 -9 -12 -9 -12 -1 0 14 -56 -2 -81 -23 -8 -8 -28
-14 -44 -14 -15 0 -47 -11 -70 -25 -23 -13 -45 -22 -48 -19 -3 3 -11 3 -17 -1
-9 -6 -9 -9 0 -15 7 -4 10 -15 7 -24 -8 -20 -29 -21 -25 -2 5 24 -14 19 -26
-6 -6 -13 -21 -27 -34 -33 -12 -5 -22 -16 -22 -23 0 -8 -6 -12 -15 -8 -8 3
-21 -1 -29 -9 -7 -8 -16 -11 -20 -8 -3 4 -6 1 -6 -6 0 -15 -25 -41 -39 -41 -6
0 -10 -3 -10 -7 4 -24 -4 -33 -27 -33 -23 0 -25 -2 -13 -17 18 -21 16 -27 -13
-33 -17 -5 -23 -13 -24 -35 -1 -17 -4 -42 -9 -57 -5 -19 -3 -28 5 -28 6 0 8
-5 5 -10 -5 -8 -11 -7 -21 1 -10 8 -14 8 -14 0 0 -6 5 -11 11 -11 7 0 9 -11 6
-28 -5 -22 -2 -28 13 -29 11 -1 22 2 25 8 4 5 -1 9 -9 9 -9 0 -16 5 -16 10 0
6 10 8 23 5 18 -5 34 3 68 34 24 22 50 39 57 36 6 -2 12 1 13 8 1 7 5 1 9 -13
l8 -25 1 27 c1 25 21 52 21 29 0 -6 5 -11 11 -11 7 0 9 11 6 30 -9 44 28 59
145 63 61 1 98 7 107 15 8 8 27 12 44 9 17 -2 50 2 74 9 24 7 43 10 43 7 0 -3
7 0 15 7 8 6 18 9 23 6 5 -3 21 3 35 14 25 20 97 28 97 11 0 -5 9 -7 20 -4 19
5 20 6 3 19 -17 12 -16 13 5 14 25 0 28 -11 10 -43 -6 -12 -12 -31 -12 -42 -1
-11 -5 -20 -11 -20 -5 0 -9 4 -7 8 1 4 -7 3 -19 -4 -15 -8 -19 -8 -15 0 4 6 2
11 -3 11 -6 0 -11 7 -11 15 0 8 -4 15 -10 15 -17 0 -11 -30 10 -57 11 -14 20
-31 20 -37 0 -6 -4 -5 -9 3 -8 12 -12 12 -25 2 -9 -8 -16 -10 -16 -5 0 5 -10
-2 -23 -16 -28 -31 -65 -53 -77 -45 -6 4 -10 -2 -10 -12 0 -11 -3 -14 -8 -7
-4 6 -15 10 -24 8 -12 -1 -18 5 -19 19 -1 19 -2 20 -6 3 -4 -15 -7 -16 -14 -5
-6 10 -9 6 -9 -15 0 -28 -1 -29 -14 -10 -8 10 -18 16 -22 12 -4 -4 -1 -15 7
-24 13 -16 12 -17 -8 -12 -18 5 -23 2 -23 -12 0 -30 -16 -32 -35 -4 -16 24
-17 25 -30 8 -7 -10 -11 -23 -8 -30 3 -7 -5 -10 -21 -7 -26 5 -37 -12 -14 -19
17 -6 0 -28 -22 -28 -13 0 -17 -5 -14 -15 4 -8 1 -15 -6 -15 -6 0 -10 -10 -8
-22 2 -18 9 -23 31 -21 15 1 25 -2 22 -8 -4 -5 -1 -9 5 -9 6 0 20 -9 32 -20
21 -20 44 -28 34 -12 -2 4 -1 14 4 22 7 11 10 8 15 -12 7 -28 29 -28 73 0 29
19 84 23 95 8 5 -8 9 -8 15 1 4 6 22 10 40 9 17 -1 32 1 32 5 0 8 111 6 126
-3 6 -4 21 -1 35 6 22 11 27 10 44 -12 11 -13 25 -29 32 -37 7 -7 9 -16 5 -20
-4 -5 3 -5 16 -2 12 3 22 1 22 -4 0 -5 5 -9 12 -9 6 0 4 8 -6 19 -16 17 -16
19 4 24 17 4 20 11 15 26 -4 14 -2 21 7 21 7 0 23 3 36 6 18 5 22 2 22 -15 0
-21 14 -28 24 -12 3 5 22 12 42 16 34 6 36 8 30 36 -3 16 -1 29 4 29 10 0 14
-14 11 -37 -1 -9 13 -11 52 -7 43 4 56 1 60 -11 4 -8 14 -15 24 -15 10 0 31
-7 46 -15 15 -8 43 -17 62 -21 33 -6 35 -9 35 -45 0 -22 -6 -41 -14 -46 -8 -4
-16 -19 -18 -33 -4 -25 -6 -26 -60 -10 -26 8 -26 7 -21 -28 3 -27 2 -33 -5
-23 -9 12 -13 12 -26 2 -9 -7 -28 -11 -42 -8 -23 4 -25 2 -20 -19 4 -14 2 -24
-4 -24 -5 0 -10 7 -10 15 0 8 -7 15 -15 15 -8 0 -15 5 -15 10 0 6 7 10 16 10
9 0 14 6 11 13 -10 28 -102 -6 -102 -38 -1 -11 -4 -26 -8 -33 -5 -6 -5 -17 -2
-22 4 -7 -3 -9 -22 -5 -21 5 -24 4 -13 -4 12 -8 12 -11 1 -11 -8 0 -11 -6 -7
-16 5 -13 2 -15 -16 -10 -13 3 -26 6 -30 6 -4 0 -5 7 -2 15 4 8 1 15 -7 15 -7
0 -9 -3 -6 -6 3 -4 0 -16 -8 -26 -7 -11 -11 -26 -9 -33 3 -7 1 -16 -5 -19 -6
-4 -13 9 -17 29 -5 27 -9 33 -19 25 -9 -8 -14 -7 -18 2 -3 7 -6 3 -6 -9 -1
-16 -5 -21 -17 -16 -11 4 -15 1 -12 -13 2 -14 -2 -18 -16 -16 -14 3 -17 -1
-13 -12 4 -10 1 -16 -8 -16 -8 0 -15 -4 -15 -9 0 -5 -19 -8 -41 -7 -38 2 -43
0 -55 -29 -12 -30 -15 -31 -64 -30 -35 2 -56 -3 -67 -13 -12 -12 -19 -13 -32
-4 -30 22 -43 25 -52 11 -5 -8 -9 -9 -9 -4 0 6 -19 10 -43 11 -23 0 -34 -1
-24 -3 18 -5 22 -15 10 -26 -3 -4 -12 -2 -20 4 -7 6 -13 8 -13 4 0 -4 -6 -3
-13 3 -7 6 -27 12 -44 14 -21 1 -29 6 -26 15 3 8 -3 13 -17 13 -11 0 -18 5
-15 10 5 9 -16 15 -38 11 -5 -1 -6 3 -3 8 4 5 -7 18 -24 27 -20 13 -26 20 -17
26 8 5 7 8 -5 8 -10 0 -18 6 -18 13 0 7 -11 20 -24 31 -14 10 -22 24 -19 32 3
10 0 12 -10 8 -10 -3 -18 2 -22 15 -3 12 -11 21 -17 21 -5 0 -8 7 -4 15 3 9 0
15 -9 15 -8 0 -15 4 -15 9 0 6 -14 18 -30 28 -17 10 -28 23 -26 30 3 6 -4 15
-15 18 -10 4 -19 14 -19 23 -1 21 -23 52 -38 52 -6 0 -9 7 -6 15 4 9 0 15 -10
15 -9 0 -16 -4 -16 -10 0 -14 -47 -13 -52 1 -2 7 -71 -33 -153 -88 -83 -55
-181 -121 -220 -147 -38 -25 -98 -66 -133 -91 -35 -25 -66 -45 -68 -45 -8 0
-107 -67 -129 -87 -32 -30 -86 -59 -141 -77 -28 -9 -60 -23 -70 -31 -10 -8
-41 -15 -69 -15 -27 0 -68 -5 -90 -10 -26 -7 -63 -7 -105 0 -36 5 -103 14
-150 20 -47 6 -116 17 -155 25 -38 7 -129 25 -201 40 -71 14 -138 23 -147 19
-25 -9 -21 -38 11 -70 34 -35 72 -88 72 -102 0 -6 -23 -16 -51 -22 -33 -8 -60
-22 -76 -40 -14 -17 -39 -30 -61 -34 -20 -3 -50 -8 -67 -11 -16 -3 -52 -11
-80 -19 -27 -8 -83 -22 -124 -31 -80 -18 -139 -43 -186 -82 -16 -14 -79 -52
-140 -85 -134 -73 -238 -150 -297 -218 -23 -28 -80 -88 -126 -133 -45 -45 -80
-87 -78 -94 3 -7 -1 -10 -8 -7 -12 4 -68 -59 -148 -166 -42 -57 -113 -192
-143 -271 -24 -63 -47 -95 -147 -211 -222 -258 -404 -568 -345 -591 9 -4 9 -6
0 -6 -10 -1 -13 -530 -13 -2586 l0 -2585 25 0 c31 0 82 54 95 100 5 19 26 103
46 185 37 153 92 286 149 356 40 50 124 84 141 58 3 -5 9 -7 14 -4 5 3 19 1
32 -4 37 -14 47 -1 63 80 64 323 109 453 172 495 31 20 110 27 131 11 8 -6 12
-6 12 2 0 7 8 8 26 1 53 -20 129 8 109 40 -4 6 -1 17 5 25 6 8 9 18 6 24 -6
10 -20 188 -17 231 3 52 10 89 21 110 6 12 13 31 15 42 3 12 14 29 25 40 11
10 20 25 20 34 0 8 13 17 31 21 17 3 33 12 36 19 3 9 20 14 43 14 21 0 40 4
42 9 2 6 21 6 47 1 24 -4 57 -6 74 -3 24 4 29 2 24 -11 -4 -11 -1 -16 12 -16
10 0 33 -3 50 -6 24 -5 31 -3 31 10 0 15 16 21 46 17 7 -1 14 8 17 19 4 14 10
18 23 13 12 -4 15 -3 10 5 -4 7 3 17 18 24 14 6 26 19 26 28 0 10 -48 67 -106
128 -162 171 -174 185 -180 214 -4 15 -17 34 -29 42 -34 22 -40 61 -15 101 30
49 54 50 138 8 39 -20 72 -40 72 -45 0 -5 5 -6 10 -3 6 3 10 -1 10 -9 0 -9 5
-16 10 -16 6 0 10 7 10 15 0 9 9 15 21 15 15 0 19 4 15 16 -5 13 -1 14 24 9
26 -6 30 -4 30 14 0 23 16 37 23 19 3 -9 10 -7 21 7 8 11 16 15 16 8 0 -7 5
-13 11 -13 6 0 9 6 6 14 -3 8 0 19 7 25 7 6 12 23 10 39 -2 18 4 32 18 43 21
16 21 18 6 65 -11 36 -13 51 -4 57 7 6 4 7 -6 3 -10 -3 -18 -1 -18 4 0 6 6 10
13 10 8 0 8 3 -2 9 -11 7 -10 10 5 14 16 4 16 5 -3 6 -16 1 -21 5 -16 17 5 13
7 13 14 2 7 -11 11 -10 18 2 5 8 8 17 6 20 -11 18 -12 59 -2 57 7 -1 11 8 10
23 -1 14 -3 38 -4 53 -1 15 -6 30 -11 33 -4 3 -1 12 7 20 22 22 18 42 -7 47
l-23 4 23 2 c15 1 22 7 22 20 0 11 5 23 10 26 5 3 10 -1 10 -10 0 -9 4 -14 10
-10 5 3 7 12 4 19 -6 15 22 29 39 19 7 -3 9 -3 5 2 -4 4 -4 13 1 19 14 18 31
77 21 71 -6 -4 -10 0 -10 9 0 8 6 17 13 20 9 5 9 7 0 12 -20 9 -16 34 5 27 16
-6 16 -5 -1 14 -9 11 -17 34 -17 52 0 18 -4 30 -9 27 -9 -6 -7 23 5 63 6 19 4
23 -7 19 -10 -4 -14 3 -16 20 -1 19 1 22 9 11 7 -11 8 -9 4 6 -3 11 -7 38 -11
60 -4 30 -3 35 5 20 7 -14 8 -2 4 41 -4 39 -2 64 4 68 6 4 9 13 6 20 -3 8 -1
17 5 21 6 3 11 17 11 31 0 13 4 24 9 24 8 0 12 16 26 94 2 16 11 36 19 45 10
11 14 40 14 100 0 55 4 86 12 91 8 5 9 10 2 14 -19 12 -5 54 35 102 22 27 59
82 82 121 23 40 53 85 66 100 39 44 45 52 45 57 0 3 20 40 45 82 25 41 48 87
51 100 4 14 14 29 24 34 10 5 21 21 24 36 4 15 17 41 29 58 50 70 70 113 61
127 -3 5 1 9 9 9 14 0 37 40 37 65 0 7 10 35 22 62 12 26 21 51 20 56 -1 4 3
7 8 7 5 0 9 3 8 8 -4 14 21 72 32 72 6 0 8 10 4 25 -4 15 -2 25 4 25 6 0 13
14 17 30 4 17 10 30 15 30 4 0 6 9 3 19 -3 11 6 35 20 56 14 21 23 44 20 53
-4 10 -2 13 5 8 7 -4 12 -1 12 8 0 9 3 16 8 16 4 0 18 21 32 48 24 45 40 69
68 98 8 8 25 36 39 62 14 25 38 59 54 75 16 15 27 33 23 39 -4 6 -3 8 4 4 6
-3 14 3 18 16 3 12 13 28 20 36 8 7 14 20 14 28 0 8 4 14 9 14 5 0 16 19 26
42 18 46 59 100 69 91 3 -4 6 1 6 11 0 9 5 22 10 29 6 7 24 30 40 52 17 22 46
57 65 79 19 21 33 41 31 45 -2 3 13 5 35 3 29 -3 40 0 44 12 10 32 12 41 12
46 0 3 6 16 13 30 8 14 14 30 15 35 1 23 41 105 51 105 9 0 38 56 47 90 7 28
108 87 128 74 5 -3 9 3 10 13 0 10 3 13 5 6 3 -7 12 -9 20 -6 7 3 11 10 7 16
-4 6 0 8 10 4 10 -4 17 -1 17 6 0 8 3 8 9 -2 7 -11 11 -10 19 5 6 11 12 18 14
16 8 -8 38 11 38 24 0 8 5 14 11 14 5 0 8 3 6 8 -3 4 1 13 9 19 9 9 15 10 20
2 3 -6 0 -15 -7 -20 -10 -6 -11 -9 -1 -9 7 0 12 -14 12 -36 0 -82 76 -280 131
-340 10 -11 19 -25 19 -31 0 -5 10 -18 21 -29 22 -19 22 -19 14 6 -4 14 -17
33 -28 43 -20 17 -19 17 22 17 34 0 44 -4 48 -20 3 -11 14 -20 25 -20 12 0 17
-4 12 -12 -4 -7 -3 -8 4 -4 7 4 12 15 12 24 0 15 2 15 10 2 8 -13 10 -13 10 1
0 17 -26 33 -33 21 -2 -4 -3 -2 -1 4 1 6 -2 16 -7 21 -7 7 -3 12 10 16 26 6
43 -20 44 -69 1 -34 11 -45 21 -21 5 12 6 11 35 -33 6 -8 13 -11 18 -7 4 5 3
11 -3 15 -6 4 -14 17 -18 29 -4 14 -12 20 -22 16 -8 -3 -14 1 -14 10 0 33 67
27 80 -7 4 -11 14 -34 21 -51 7 -16 13 -32 13 -35 5 -24 19 -29 41 -14 23 15
25 15 31 0 6 -15 7 -15 18 0 7 9 24 17 39 17 15 1 27 6 27 11 0 4 7 5 16 2 9
-4 21 0 28 9 14 19 60 9 52 -12 -3 -8 -6 -28 -6 -44 0 -16 -3 -28 -7 -27 -5 2
-8 -1 -8 -7 0 -5 5 -9 12 -7 7 2 13 -2 13 -8 0 -5 9 -10 20 -10 12 0 20 7 20
16 0 10 -6 14 -15 10 -11 -4 -15 2 -15 24 0 17 5 30 10 30 6 0 10 -5 10 -10 0
-6 6 -9 13 -8 6 2 12 -5 12 -14 0 -26 12 -31 18 -8 3 11 2 20 -2 20 -3 0 -12
10 -20 23 l-14 22 25 -22 c13 -13 31 -23 39 -23 12 0 12 -2 -1 -10 -11 -8 -9
-9 10 -5 14 3 35 7 46 7 15 2 20 7 16 17 -4 10 -7 11 -10 3 -5 -15 -42 -16
-42 -1 0 6 -6 9 -13 6 -8 -3 -14 1 -14 9 0 8 10 14 21 14 20 1 20 2 4 14 -20
15 -14 26 14 26 10 0 18 5 18 10 0 17 -26 22 -62 12 -31 -8 -34 -7 -36 13 -1
17 5 25 24 29 37 10 42 -1 8 -15 -23 -10 -25 -13 -11 -16 10 -3 24 1 32 7 8 7
30 13 50 15 33 3 35 2 29 -18 -6 -19 -5 -20 10 -5 9 9 16 21 16 27 0 21 36 31
58 15 13 -9 22 -11 22 -5 0 6 -5 11 -12 11 -6 0 -3 8 8 19 13 12 26 16 39 11
13 -5 24 -2 32 9 11 14 12 14 13 -4 0 -14 3 -16 8 -7 5 7 18 14 30 17 12 2 27
7 32 10 6 3 10 1 10 -4 0 -6 9 -11 21 -11 15 0 19 -5 15 -15 -4 -13 -2 -14 14
-5 11 6 20 7 19 3 -3 -20 2 -34 11 -28 6 3 10 -3 10 -14 0 -12 5 -21 10 -21 6
0 10 5 10 10 0 20 19 9 22 -12 2 -18 8 -22 28 -20 36 5 55 22 38 34 -9 6 -6 7
9 3 24 -6 123 38 123 55 0 6 7 10 15 10 9 0 57 29 108 64 111 76 328 208 334
202 3 -2 -3 -18 -12 -35 -18 -36 -47 -129 -65 -211 -7 -30 -19 -74 -28 -97
-14 -41 -13 -86 4 -193 7 -49 24 -120 35 -151 10 -25 -9 -88 -72 -244 -57
-141 -81 -229 -74 -280 3 -27 7 -81 8 -120 2 -38 10 -151 20 -250 9 -99 19
-209 21 -245 3 -36 12 -117 20 -180 40 -294 40 -299 50 -470 8 -128 11 -139
171 -565 12 -33 50 -148 84 -255 54 -168 118 -344 167 -457 8 -17 14 -37 14
-45 0 -8 5 -19 12 -26 9 -9 9 -12 -3 -12 -12 0 -12 -1 1 -9 8 -6 18 -7 22 -5
10 6 11 -20 1 -30 -4 -3 -8 -16 -9 -29 -8 -59 -6 -80 7 -88 8 -4 23 -15 34
-24 17 -14 17 -16 3 -11 -24 7 -23 -9 3 -45 13 -18 18 -36 14 -49 -4 -13 -1
-22 9 -26 17 -7 22 -54 6 -54 -5 0 -10 -5 -10 -10 0 -7 6 -7 20 0 14 8 26 8
40 0 12 -6 20 -7 20 -1 0 5 -6 12 -12 14 -10 4 -10 6 0 6 7 1 15 -6 18 -14 4
-11 11 -12 24 -5 25 13 44 -5 75 -70 14 -30 33 -66 41 -80 16 -29 14 -66 -4
-62 -6 1 -12 -5 -12 -13 0 -8 -5 -15 -11 -15 -15 0 -48 -42 -49 -61 0 -9 7
-19 15 -23 8 -3 15 -10 15 -17 0 -6 -7 -8 -17 -5 -9 4 -20 1 -24 -6 -5 -7 -12
-13 -16 -14 -4 0 -15 -4 -23 -7 -8 -4 -46 -15 -85 -25 l-70 -17 0 -40 c0 -35
-3 -40 -23 -39 -19 0 -22 -4 -21 -35 2 -30 3 -32 6 -8 3 20 10 27 26 27 18 0
19 -2 7 -10 -11 -7 -12 -12 -4 -18 7 -4 13 -16 15 -27 3 -11 11 -20 19 -20 8
0 19 -6 23 -13 6 -10 12 -10 22 -2 9 8 14 7 19 -5 3 -10 0 -15 -11 -15 -14 0
-14 -2 3 -14 10 -8 23 -11 28 -6 5 5 14 6 20 4 15 -6 103 15 220 52 86 27 89
28 102 9 16 -21 17 -50 4 -80 l-9 -20 0 20 c-1 18 -3 17 -14 -5 -7 -14 -23
-26 -35 -28 -12 -2 -22 -8 -22 -14 0 -6 -8 -8 -19 -5 -15 4 -20 -2 -24 -32 -9
-54 -12 -65 -20 -78 -5 -8 -3 -13 7 -13 11 0 15 -8 14 -24 -1 -14 -6 -22 -10
-20 -4 3 -8 -2 -8 -10 0 -9 -7 -16 -15 -16 -9 0 -12 -6 -8 -17 4 -10 2 -14 -4
-10 -6 4 -23 -5 -39 -18 -16 -14 -33 -25 -37 -25 -13 0 -38 -28 -29 -33 4 -2
1 -2 -6 0 -8 2 -29 -4 -48 -13 -26 -12 -36 -26 -44 -56 -8 -28 -15 -37 -23
-30 -8 6 -23 4 -42 -4 l-30 -13 33 -1 c17 0 32 -5 32 -10 0 -6 -10 -10 -22 -9
-13 1 -35 1 -51 1 -24 -2 -27 -5 -21 -27 5 -21 3 -25 -17 -25 -23 -1 -23 -1
-5 -12 15 -8 21 -8 24 0 5 15 52 16 52 2 0 -5 11 -10 25 -10 25 0 25 0 11 -35
-9 -22 -11 -35 -5 -35 6 0 13 9 16 21 4 12 11 18 20 15 8 -3 19 -6 23 -6 5 0
7 -9 5 -19 -2 -11 3 -22 10 -25 10 -3 12 0 8 11 -4 10 -2 14 4 10 6 -4 14 -1
16 5 4 10 6 10 6 1 1 -7 10 -17 21 -23 16 -9 19 -8 14 7 -5 16 -4 16 8 3 14
-17 52 -15 42 2 -4 7 -2 8 4 4 6 -4 22 -1 34 6 13 6 28 13 33 14 6 1 30 9 54
18 24 9 52 16 61 16 10 0 20 4 22 8 4 10 124 54 156 58 13 1 22 -3 22 -12 0
-19 0 -19 10 -54 7 -23 5 -30 -6 -30 -8 0 -14 -8 -15 -17 0 -12 -2 -13 -6 -5
-3 9 -10 6 -24 -10 -11 -12 -17 -28 -15 -35 3 -7 -2 -17 -12 -22 -12 -7 -16
-21 -15 -53 2 -42 -18 -88 -38 -88 -6 0 -25 -11 -43 -25 -18 -14 -48 -28 -67
-31 -43 -8 -79 -30 -79 -49 0 -8 -6 -12 -12 -10 -17 6 -45 -12 -35 -22 5 -4
12 -1 16 6 5 7 13 11 17 8 9 -5 210 43 230 56 6 3 38 9 70 12 33 3 71 8 87 10
19 3 27 0 27 -10 0 -9 -6 -12 -15 -9 -11 4 -15 0 -15 -16 0 -12 -10 -36 -22
-52 -12 -17 -23 -42 -24 -57 -6 -59 -17 -93 -33 -99 -9 -3 -21 -12 -26 -20 -6
-7 -15 -12 -20 -11 -6 1 -30 -7 -55 -17 -25 -11 -64 -26 -87 -34 -24 -7 -43
-17 -43 -22 0 -5 -4 -6 -10 -3 -5 3 -20 0 -32 -7 -13 -6 -27 -13 -33 -14 -5
-1 -32 -12 -58 -24 -32 -15 -46 -27 -43 -37 3 -8 2 -12 -3 -8 -17 10 -61 -14
-61 -34 0 -21 -26 -36 -36 -20 -3 6 -13 1 -22 -13 -9 -13 -22 -27 -29 -31 -7
-4 -13 -15 -13 -22 0 -9 -10 -15 -26 -15 -30 0 -64 -16 -64 -31 0 -6 4 -8 9
-5 5 4 11 1 13 -5 2 -6 20 -11 41 -11 36 0 36 0 33 -39 -2 -21 0 -42 5 -45 5
-3 9 0 9 6 0 14 25 40 38 40 6 0 13 6 15 13 3 6 6 3 6 -9 1 -17 7 -20 39 -20
20 0 40 5 44 11 5 6 8 6 8 -2 0 -13 67 -7 86 8 6 5 14 6 17 2 4 -3 7 -1 7 5 0
7 7 12 15 12 8 0 15 -6 15 -12 0 -9 3 -9 9 1 15 23 91 15 91 -10 0 -6 -4 -7
-10 -4 -5 3 -10 -1 -10 -9 0 -18 17 -30 22 -16 4 13 238 26 238 13 0 -5 9 -9
21 -10 16 -2 18 1 9 11 -8 11 -5 13 19 12 16 0 27 -4 25 -8 -3 -5 2 -8 10 -8
9 0 16 -8 16 -19 0 -11 5 -23 10 -26 6 -4 8 -15 5 -26 -5 -14 -2 -19 10 -19
13 0 16 -6 12 -27 -3 -18 2 -33 15 -47 l20 -21 -11 22 c-6 12 -11 25 -11 30 1
4 10 -9 21 -30 11 -20 24 -37 29 -37 5 0 7 -7 3 -16 -4 -12 0 -14 23 -8 16 4
26 3 22 -1 -4 -5 -3 -14 3 -22 9 -11 129 -13 655 -13 l644 0 0 1030 c0 567 -3
1030 -6 1030 -3 0 -15 -5 -27 -11 -21 -10 -21 -10 -3 5 11 9 23 16 28 16 14 0
10 178 -4 183 -10 4 -10 7 0 18 9 10 12 204 11 908 -1 493 -4 885 -6 872 -4
-19 -7 -21 -14 -10 -7 11 -9 11 -9 -3 0 -10 -6 -18 -14 -18 -16 0 -31 30 -19
39 4 3 9 20 11 36 2 17 10 35 18 41 7 6 14 22 14 35 0 19 2 21 10 9 8 -12 10
-11 10 8 0 15 -6 22 -18 22 -14 0 -36 35 -85 133 -37 72 -67 136 -67 140 0 5
-13 25 -28 45 -26 33 -57 105 -94 216 -7 21 -18 41 -25 43 -6 3 -9 11 -6 19 3
8 -2 31 -10 52 -9 22 -12 44 -7 51 9 15 2 50 -13 69 -8 11 -12 11 -19 0 -7
-10 -9 -10 -5 2 2 8 11 15 19 14 19 -2 20 53 1 60 -11 5 -11 9 1 28 15 23 16
26 16 52 0 8 10 14 24 14 17 0 23 -5 19 -14 -3 -8 -9 -11 -14 -8 -5 3 -9 0 -9
-6 0 -6 -5 -8 -12 -4 -6 4 -8 3 -5 -4 4 -5 16 -8 27 -5 15 4 19 2 14 -10 -3
-10 3 -20 17 -27 12 -7 17 -15 12 -19 -6 -3 -13 -16 -17 -28 -11 -35 11 -28
64 20 67 59 135 110 162 120 12 4 31 15 40 24 17 15 18 77 18 1123 l0 1106
-52 16 c-54 17 -162 40 -174 38 -6 -1 -33 62 -34 77 0 1 12 -2 26 -8 15 -5 29
-7 32 -4 3 3 0 5 -6 5 -7 0 -12 6 -12 14 0 7 -15 20 -32 27 -18 7 -60 29 -93
48 -116 66 -171 90 -232 101 -34 6 -79 18 -100 26 -57 24 -246 23 -298 -1 -22
-10 -43 -18 -47 -17 -4 1 -24 -14 -45 -33 -46 -42 -53 -43 -53 -7 0 37 -21 65
-46 60 -26 -5 -47 -52 -53 -125 -6 -59 -8 -63 -49 -93 -24 -17 -64 -40 -89
-51 -25 -11 -58 -30 -74 -44 -23 -19 -34 -22 -56 -15 -60 17 -83 31 -182 100
-70 50 -100 98 -140 225 -36 113 -107 237 -183 320 -38 40 -78 77 -89 80 -19
6 -20 14 -18 123 1 64 -3 118 -8 119 -5 2 -7 27 -4 56 4 28 6 106 6 172 l0
119 -33 2 c-28 1 -31 0 -20 -14 7 -8 13 -18 13 -21 0 -3 5 -5 12 -3 18 4 16
-15 -2 -22 -35 -13 -54 19 -46 82 4 30 -27 8 -39 -28z m1497 -1134 c81 -6 90
-12 56 -39 -15 -12 -32 -27 -36 -35 -13 -20 -56 -34 -75 -23 -14 8 -12 10 11
16 15 4 24 11 21 16 -3 5 -10 7 -15 4 -5 -4 -9 -1 -9 4 0 6 -7 11 -16 11 -8 0
-13 4 -10 9 3 4 -12 3 -34 -2 -34 -9 -46 -8 -84 12 -25 12 -48 27 -52 32 -5 9
67 8 243 -5z m-5423 -402 c9 -8 16 -20 16 -25 0 -6 4 -8 10 -4 5 3 7 12 3 20
-3 8 0 15 7 15 19 0 80 -31 80 -41 0 -5 5 -9 11 -9 8 0 7 5 -1 15 -7 9 -11 17
-9 18 2 2 81 0 174 -4 160 -6 205 -12 205 -28 0 -4 -36 -23 -81 -44 -76 -35
-84 -37 -137 -28 -31 5 -61 6 -67 3 -5 -3 -7 -2 -3 3 7 7 -43 55 -58 55 -5 0
2 -7 14 -16 33 -23 27 -30 -26 -29 -43 0 -55 5 -102 45 -29 25 -56 47 -61 48
-12 5 -12 22 0 22 5 0 17 -7 25 -16z m4118 -661 c12 -24 37 -60 56 -79 18 -19
31 -38 27 -43 -3 -6 0 -13 7 -18 17 -11 48 -70 48 -91 0 -10 11 -38 25 -64 14
-26 24 -58 23 -71 -2 -22 -5 -24 -33 -16 -39 12 -45 11 -45 -2 0 -5 4 -7 10
-4 13 8 61 -25 54 -37 -4 -6 3 -8 17 -4 l24 7 -24 -14 c-16 -10 -20 -17 -12
-21 7 -5 9 -20 5 -42 -4 -24 -2 -34 6 -34 7 0 10 7 6 16 -3 8 -2 13 3 10 5 -3
9 -17 9 -32 0 -18 -3 -22 -9 -13 -5 8 -9 11 -9 7 0 -3 -3 -13 -6 -21 -3 -9 3
-16 15 -20 12 -3 21 -13 21 -24 0 -14 -2 -15 -9 -4 -5 8 -11 9 -15 3 -3 -6 -1
-14 5 -18 8 -4 7 -9 -2 -15 -11 -7 -11 -9 -1 -9 7 0 10 -6 7 -12 -4 -7 3 -2
14 12 l22 25 -7 -29 c-5 -21 -4 -27 5 -22 7 5 11 0 11 -13 0 -10 -6 -22 -12
-25 -10 -5 -10 -7 0 -12 6 -3 9 -10 6 -16 -3 -5 2 -16 12 -24 11 -9 13 -13 7
-9 -9 4 -13 -1 -13 -14 0 -12 -4 -21 -10 -21 -5 0 -7 -7 -4 -15 4 -8 1 -15 -6
-15 -6 0 -8 -5 -4 -11 4 -8 9 -7 15 2 6 10 9 11 9 2 0 -7 5 -12 12 -10 6 1 13
-7 15 -18 3 -19 3 -19 -5 -1 -6 14 -11 16 -16 8 -16 -26 -51 3 -48 39 1 6 -30
23 -60 33 -10 3 -18 15 -18 26 0 11 -7 20 -16 20 -8 0 -13 4 -9 10 7 12 -24
110 -36 110 -5 0 -9 8 -9 18 0 14 2 15 10 2 5 -8 10 -10 10 -4 0 6 -11 23 -24
37 -13 14 -21 28 -18 31 3 3 -5 6 -17 6 -14 0 -20 4 -15 11 3 6 0 15 -7 20
-10 6 -11 9 -1 9 15 0 -18 69 -43 90 -15 12 -19 12 -31 -5 -15 -21 -15 -20
-19 12 -1 12 2 20 7 17 6 -4 8 2 6 12 -2 11 -10 18 -16 16 -7 -1 -12 2 -12 7
0 5 -7 8 -16 7 -23 -1 -93 136 -98 189 -1 23 -8 51 -15 63 -7 12 -9 26 -6 31
3 5 -1 12 -7 14 -7 3 6 6 29 6 l42 1 -2 -41 c-1 -23 3 -43 8 -45 9 -4 69 109
70 131 0 15 22 35 37 35 10 0 10 2 -1 9 -11 7 -10 10 5 13 26 6 40 -6 66 -59z
m1133 -66 c0 -43 -3 -77 -6 -77 -4 0 -9 -9 -12 -20 -4 -15 -10 -18 -24 -13
-15 6 -16 4 -5 -9 7 -9 25 -19 39 -23 20 -5 23 -9 14 -15 -8 -4 -10 -13 -7
-19 4 -6 2 -11 -3 -11 -6 0 -11 -7 -11 -15 0 -18 1 -18 32 -2 14 7 23 18 21
24 -2 6 5 14 15 17 14 5 18 13 15 26 -3 11 -9 20 -13 20 -12 0 -5 33 8 38 8 2
12 -8 12 -27 0 -17 5 -31 11 -31 5 0 7 4 4 10 -3 5 -1 18 4 29 9 16 20 19 77
17 66 -2 67 -2 86 31 11 18 24 33 29 33 12 0 12 -2 -12 -56 -11 -27 -18 -58
-15 -70 3 -12 30 -52 60 -88 l54 -66 -44 -77 c-24 -43 -44 -87 -44 -100 0 -12
-4 -25 -10 -28 -12 -7 -38 -63 -42 -90 -2 -11 -9 -27 -17 -34 -12 -13 -17 -11
-41 16 l-27 30 13 84 c13 83 27 151 45 218 4 19 7 37 4 39 -5 5 -35 -54 -35
-70 0 -17 -41 -18 -61 -2 -8 6 -32 17 -54 24 -22 7 -47 18 -55 25 -8 8 -27 17
-42 20 -16 4 -26 11 -23 15 3 5 1 11 -5 15 -10 6 -11 75 0 75 3 0 5 15 4 33
-4 47 6 77 25 78 10 0 11 2 4 6 -14 5 -18 45 -5 57 7 7 8 11 11 37 0 6 7 9 14
6 8 -2 12 -28 12 -80z m-6089 -169 c-2 -42 2 -79 8 -87 8 -11 8 -13 -1 -7 -8
4 -13 2 -13 -6 -3 -62 -12 -124 -20 -126 -5 -2 -4 -14 2 -28 10 -20 9 -32 -5
-57 -10 -19 -18 -61 -19 -101 l-3 -69 -50 -28 c-55 -31 -70 -35 -59 -17 4 7 3
8 -5 4 -6 -4 -9 -11 -6 -15 2 -5 -5 -17 -16 -27 -17 -16 -22 -16 -29 -4 -6 8
-10 12 -10 8 0 -15 -4 -23 -32 -80 -15 -31 -28 -70 -29 -85 -1 -15 -4 -39 -8
-53 l-7 -25 -7 25 c-5 19 -9 22 -18 13 -6 -6 -18 -9 -25 -6 -8 3 -14 -1 -14
-8 0 -11 -3 -11 -10 1 -6 10 -10 11 -10 3 0 -7 -4 -13 -10 -13 -5 0 -10 7 -10
15 0 8 -7 15 -15 15 -8 0 -15 5 -15 11 0 5 -4 7 -10 4 -21 -13 -9 15 25 59 19
26 35 51 35 56 0 6 4 10 9 10 12 0 44 97 37 109 -3 5 -7 28 -8 50 -2 48 -11
52 -27 13 -7 -16 -37 -53 -68 -83 -60 -57 -55 -41 8 26 21 22 56 76 78 121 29
60 49 86 78 105 44 29 98 52 125 54 10 1 26 11 34 23 8 12 21 22 27 22 7 0 6
-4 -3 -10 -11 -7 -11 -10 -2 -10 7 0 10 -5 7 -10 -4 -6 -10 -8 -15 -5 -4 3
-10 -2 -13 -9 -7 -17 18 -40 33 -31 6 4 6 -2 -1 -19 -10 -21 -8 -29 11 -53
l23 -28 -5 27 c-3 15 -1 32 3 40 4 7 3 18 -3 25 -5 7 -8 20 -4 28 3 8 0 15 -7
16 -9 0 -9 2 1 6 6 2 12 9 12 14 0 6 -6 7 -12 3 -8 -5 -7 0 2 11 9 11 10 16 3
11 -19 -11 -15 8 7 37 15 19 20 40 20 91 0 62 14 116 31 116 4 0 6 -33 5 -72z
m6514 -727 c0 -29 11 -31 41 -9 l29 22 57 -39 c32 -22 72 -50 90 -63 36 -26
37 -21 -19 -140 -17 -35 -28 -72 -25 -83 3 -10 1 -19 -4 -19 -4 0 -26 -19 -48
-42 -35 -38 -41 -40 -41 -21 0 12 -11 30 -25 41 -31 24 -31 32 -4 32 20 0 21
1 5 25 -14 21 -14 24 -1 19 19 -8 19 6 -1 34 -11 15 -12 22 -3 22 7 0 10 3 6
6 -3 3 -16 -1 -29 -10 -12 -9 -35 -16 -50 -16 -25 0 -33 -9 -29 -32 0 -5 -3
-8 -9 -8 -5 0 -10 -8 -10 -18 0 -31 -77 -19 -126 20 -18 14 21 85 56 103 17 9
30 20 30 26 0 6 -5 7 -11 4 -6 -4 -5 2 3 14 7 12 20 21 29 21 19 0 53 29 57
50 1 8 -6 4 -16 -9 -17 -21 -19 -21 -17 -5 4 32 17 64 25 64 5 0 12 9 15 20 7
24 25 17 25 -9z m-7138 -233 c-3 -13 -1 -19 5 -15 6 4 18 -2 27 -12 11 -13 14
-21 7 -26 -21 -12 -12 -44 14 -51 14 -3 22 -10 19 -15 -3 -5 -1 -9 4 -9 11 0
3 -58 -9 -66 -15 -9 -10 -21 11 -27 19 -5 30 -47 13 -47 -5 0 -9 -27 -10 -60
-2 -51 0 -60 15 -60 14 0 12 -4 -7 -19 -14 -11 -21 -23 -17 -30 4 -7 5 -19 2
-28 -6 -14 -8 -14 -25 1 -13 11 -21 14 -26 7 -3 -6 -1 -11 5 -11 16 0 40 -26
32 -35 -4 -4 -7 -12 -7 -17 0 -6 -6 -13 -13 -16 -8 -2 -10 2 -5 14 5 14 2 16
-20 12 -22 -4 -24 -2 -18 16 13 35 2 50 -20 25 -10 -12 -19 -26 -19 -31 0 -4
-9 -3 -20 4 -12 8 -18 19 -14 28 4 8 8 38 9 65 2 47 2 48 -8 18 -11 -36 -22
-42 -31 -17 -9 23 2 54 20 54 8 0 14 5 14 11 0 5 -5 7 -11 3 -7 -4 -9 0 -6 12
5 19 20 112 32 209 7 47 25 94 47 123 15 17 17 15 10 -10z m5831 -18 c22 -1
44 -45 56 -115 20 -112 23 -138 22 -174 -1 -18 3 -39 8 -45 9 -11 29 -251 27
-331 -1 -38 -3 -40 -33 -43 l-33 -3 -1 73 c0 40 -5 98 -10 128 -5 30 -12 107
-15 170 -3 63 -14 162 -25 220 -18 99 -24 161 -12 133 2 -7 10 -13 16 -13z
m75 8 c-2 -3 7 -17 20 -31 14 -14 28 -50 37 -92 8 -38 23 -94 34 -125 10 -30
29 -89 41 -130 12 -41 40 -127 62 -190 60 -173 60 -174 41 -158 -14 11 -15 10
-8 -11 5 -16 3 -26 -6 -32 -24 -15 -33 -10 -16 9 27 30 7 42 -66 40 -36 -1
-69 1 -73 4 -3 4 -8 44 -10 90 -12 262 -29 410 -59 525 -18 67 -19 116 -4 111
6 -2 9 -6 7 -10z m-6078 -643 c26 -8 54 -19 132 -54 26 -11 54 -21 62 -21 32
0 28 -12 -61 -195 -38 -78 -60 -105 -71 -90 -4 6 -18 11 -32 13 -19 2 -22 0
-10 -8 13 -8 12 -10 -2 -10 -10 0 -18 -7 -18 -16 0 -8 4 -13 8 -10 5 3 6 -8 4
-25 -2 -16 -10 -29 -18 -29 -8 0 -14 -9 -14 -20 0 -25 8 -25 27 -2 13 15 13
15 8 -8 -4 -14 -18 -49 -33 -78 -24 -50 -27 -52 -56 -46 -17 3 -35 9 -41 13
-10 6 -93 30 -109 31 -4 0 2 -9 15 -20 13 -10 18 -19 12 -20 -7 0 -13 5 -13
11 0 5 -5 7 -10 4 -6 -4 -17 -1 -25 5 -9 7 -15 8 -15 2 0 -5 -12 -13 -27 -17
-15 -3 -31 -12 -35 -18 -15 -25 -15 0 0 33 10 19 23 57 30 83 17 67 107 293
154 389 21 43 38 82 38 86 0 4 7 18 15 30 14 20 18 20 38 8 12 -8 33 -17 47
-21z m6636 -1687 c-5 -32 14 -75 27 -61 4 3 9 -3 13 -13 3 -10 17 -42 30 -70
14 -27 26 -64 28 -81 4 -26 1 -31 -12 -26 -15 6 -15 4 -4 -10 8 -9 18 -15 23
-14 12 3 37 -66 100 -276 27 -92 47 -172 44 -177 -3 -6 -12 -10 -19 -10 -8 0
-19 -7 -26 -15 -7 -8 -21 -15 -32 -15 -10 0 -33 -8 -51 -17 -18 -9 -36 -16
-41 -14 -6 1 -27 -5 -48 -15 -21 -9 -41 -14 -44 -11 -3 3 -17 43 -30 89 -13
46 -28 92 -33 103 -14 29 -61 176 -65 202 -2 18 0 21 12 14 11 -6 28 -2 51 10
20 10 41 19 48 19 7 0 13 7 13 15 0 8 6 12 13 9 8 -3 26 0 41 6 26 9 28 14 21
43 -4 17 -8 47 -10 65 -1 19 -6 37 -12 40 -5 4 -12 15 -16 25 -3 9 -16 17 -28
17 -14 0 -19 -5 -16 -14 3 -8 -2 -16 -15 -19 -12 -4 -17 -10 -13 -17 4 -7 2
-23 -5 -36 -10 -18 -16 -21 -27 -13 -15 13 -18 -2 -3 -17 11 -11 3 -44 -10
-44 -12 0 -42 49 -36 59 3 5 -2 15 -12 22 -15 13 -16 12 -4 -3 10 -12 10 -18
1 -23 -6 -4 -15 -2 -19 5 -5 8 -9 6 -15 -7 -6 -16 -9 -14 -21 12 -18 42 -18
66 1 41 15 -19 15 -19 16 2 1 12 3 27 4 32 1 6 3 16 4 23 2 6 6 3 11 -8 8 -19
9 -19 9 2 1 26 -17 40 -25 20 -3 -9 -14 -13 -27 -11 -15 3 -17 2 -7 -3 21 -11
24 -33 4 -33 -8 0 -13 4 -10 9 4 5 1 11 -6 13 -10 4 -10 10 -1 29 6 13 12 18
12 12 1 -18 18 -16 25 3 3 8 2 12 -4 9 -6 -3 -10 2 -10 12 0 15 -2 16 -10 3
-8 -13 -11 -12 -24 5 -9 11 -16 23 -16 27 0 6 59 29 89 34 8 2 17 7 20 12 3 5
16 11 29 15 18 4 25 -1 37 -26 7 -18 14 -26 14 -19 1 6 5 12 9 12 5 0 7 -13 4
-30 -3 -18 0 -30 7 -30 6 0 11 -9 11 -20 0 -13 7 -20 20 -20 11 0 20 5 20 10
0 6 -6 9 -12 8 -7 -2 -12 5 -12 15 1 9 -4 17 -11 17 -9 0 -11 8 -8 21 4 13 0
27 -8 33 -26 21 -22 53 8 64 43 16 46 14 39 -20z"/>
</g>
</svg>
